<svg viewBox="0 0 396 196.8254" width="5000px" height="2485.169112080275px" xmlns="http://www.w3.org/2000/svg" xmlns:xlink="http://www.w3.org/1999/xlink" preserveAspectRatio="none"><defs></defs><style>.aD6z1nYkhcoloriWfcBCVg {fill:#302118;fill-opacity:1;}.aLgOaV3zRcolors-0iWfcBCVg {fill:#302118;fill-opacity:1;}</style><g opacity="1" transform="rotate(0 0 154.50019999999998)">
        <svg width="396" height="42.3252" x="0" y="154.50019999999998" version="1.1" preserveAspectRatio="none" viewBox="2.2 -29.68 279.56 29.88">
          <g transform="matrix(1 0 0 1 0 0)" class="aD6z1nYkhcoloriWfcBCVg"><path transform="" stroke="none" d="M16.72 0.20Q12.60 0.20 9.30-1.64Q6-3.48 4.10-6.72Q2.20-9.96 2.20-14L2.20-14Q2.20-18.04 4.10-21.28Q6-24.52 9.30-26.36Q12.60-28.20 16.72-28.20L16.72-28.20Q19.76-28.20 22.32-27.22Q24.88-26.24 26.68-24.32L26.68-24.32L25.40-23Q22.04-26.32 16.80-26.32L16.80-26.32Q13.28-26.32 10.40-24.72Q7.52-23.12 5.88-20.30Q4.24-17.48 4.24-14L4.24-14Q4.24-10.52 5.88-7.70Q7.52-4.88 10.40-3.28Q13.28-1.68 16.80-1.68L16.80-1.68Q22-1.68 25.40-5.04L25.40-5.04L26.68-3.72Q24.88-1.80 22.30-0.80Q19.72 0.20 16.72 0.20L16.72 0.20Z"></path>
    <path transform="" stroke="none" d="M42.48-1.64Q44.52-1.64 46.26-2.38Q48-3.12 49.16-4.56L49.16-4.56L50.32-3.24Q48.96-1.56 46.92-0.70Q44.88 0.16 42.44 0.16L42.44 0.16Q39.32 0.16 36.86-1.20Q34.40-2.56 33.02-4.96Q31.64-7.36 31.64-10.44L31.64-10.44Q31.64-13.52 32.94-15.92Q34.24-18.32 36.56-19.68Q38.88-21.04 41.80-21.04L41.80-21.04Q44.52-21.04 46.70-19.78Q48.88-18.52 50.18-16.30Q51.48-14.08 51.60-11.32L51.60-11.32L33.96-7.88Q34.72-5 37-3.32Q39.28-1.64 42.48-1.64L42.48-1.64ZM41.80-19.28Q39.44-19.28 37.56-18.18Q35.68-17.08 34.64-15.10Q33.60-13.12 33.60-10.60L33.60-10.60Q33.60-10.16 33.68-9.36L33.68-9.36L49.60-12.48Q49.32-14.36 48.28-15.92Q47.24-17.48 45.56-18.38Q43.88-19.28 41.80-19.28L41.80-19.28ZM39.24-24.28L44.80-29L47.68-29L41.40-24.28L39.24-24.28Z"></path>
    <path transform="" stroke="none" d="M68.08 0.16Q65.04 0.16 62.64-1.20Q60.24-2.56 58.88-4.98Q57.52-7.40 57.52-10.44L57.52-10.44Q57.52-13.52 58.88-15.94Q60.24-18.36 62.64-19.70Q65.04-21.04 68.08-21.04L68.08-21.04Q70.60-21.04 72.66-20.06Q74.72-19.08 76-17.20L76-17.20L74.52-16.12Q73.40-17.68 71.74-18.46Q70.08-19.24 68.08-19.24L68.08-19.24Q65.64-19.24 63.70-18.14Q61.76-17.04 60.66-15.04Q59.56-13.04 59.56-10.44L59.56-10.44Q59.56-7.84 60.66-5.84Q61.76-3.84 63.70-2.74Q65.64-1.64 68.08-1.64L68.08-1.64Q70.08-1.64 71.74-2.42Q73.40-3.20 74.52-4.76L74.52-4.76L76-3.68Q74.72-1.80 72.66-0.82Q70.60 0.16 68.08 0.16L68.08 0.16Z"></path>
    <path transform="" stroke="none" d="M84 0L84-20.88L86-20.88L86 0L84 0ZM85-25.96Q84.32-25.96 83.84-26.42Q83.36-26.88 83.36-27.56L83.36-27.56Q83.36-28.24 83.84-28.72Q84.32-29.20 85-29.20L85-29.20Q85.68-29.20 86.16-28.74Q86.64-28.28 86.64-27.60L86.64-27.60Q86.64-26.92 86.16-26.44Q85.68-25.96 85-25.96L85-25.96Z"></path>
    <path transform="" stroke="none" d="M101.88 0.16Q99.24 0.16 97.84-1.34Q96.44-2.84 96.44-5.48L96.44-5.48L96.44-29.68L98.44-29.68L98.44-5.72Q98.44-3.68 99.36-2.62Q100.28-1.56 102.12-1.56L102.12-1.56Q103.16-1.56 104.12-1.96L104.12-1.96L104.28-0.28Q103.16 0.16 101.88 0.16L101.88 0.16Z"></path>
    <path transform="" stroke="none" d="M118.52-1.64Q120.56-1.64 122.30-2.38Q124.04-3.12 125.20-4.56L125.20-4.56L126.36-3.24Q125-1.56 122.96-0.70Q120.92 0.16 118.48 0.16L118.48 0.16Q115.36 0.16 112.90-1.20Q110.44-2.56 109.06-4.96Q107.68-7.36 107.68-10.44L107.68-10.44Q107.68-13.52 108.98-15.92Q110.28-18.32 112.60-19.68Q114.92-21.04 117.84-21.04L117.84-21.04Q120.56-21.04 122.74-19.78Q124.92-18.52 126.22-16.30Q127.52-14.08 127.64-11.32L127.64-11.32L110-7.88Q110.76-5 113.04-3.32Q115.32-1.64 118.52-1.64L118.52-1.64ZM117.84-19.28Q115.48-19.28 113.60-18.18Q111.72-17.08 110.68-15.10Q109.64-13.12 109.64-10.60L109.64-10.60Q109.64-10.16 109.72-9.36L109.72-9.36L125.64-12.48Q125.36-14.36 124.32-15.92Q123.28-17.48 121.60-18.38Q119.92-19.28 117.84-19.28L117.84-19.28Z"></path>
    <path transform="" stroke="none" d=""></path>
    <path transform="" stroke="none" d="M159.08-26.32Q154.80-26.32 152.68-24.34Q150.56-22.36 150.56-18.68L150.56-18.68L150.56-14.20L164.44-14.20L164.44-12.36L150.56-12.36L150.56 0L148.52 0L148.52-18.76Q148.52-23.16 151.22-25.68Q153.92-28.20 159.04-28.20L159.04-28.20Q164.12-28.20 167.20-25.88L167.20-25.88L166.36-24.20Q163.56-26.32 159.08-26.32L159.08-26.32Z"></path>
    <path transform="" stroke="none" d="M181.44-1.64Q183.48-1.64 185.22-2.38Q186.96-3.12 188.12-4.56L188.12-4.56L189.28-3.24Q187.92-1.56 185.88-0.70Q183.84 0.16 181.40 0.16L181.40 0.16Q178.28 0.16 175.82-1.20Q173.36-2.56 171.98-4.96Q170.60-7.36 170.60-10.44L170.60-10.44Q170.60-13.52 171.90-15.92Q173.20-18.32 175.52-19.68Q177.84-21.04 180.76-21.04L180.76-21.04Q183.48-21.04 185.66-19.78Q187.84-18.52 189.14-16.30Q190.44-14.08 190.56-11.32L190.56-11.32L172.92-7.88Q173.68-5 175.96-3.32Q178.24-1.64 181.44-1.64L181.44-1.64ZM180.76-19.28Q178.40-19.28 176.52-18.18Q174.64-17.08 173.60-15.10Q172.56-13.12 172.56-10.60L172.56-10.60Q172.56-10.16 172.64-9.36L172.64-9.36L188.56-12.48Q188.28-14.36 187.24-15.92Q186.20-17.48 184.52-18.38Q182.84-19.28 180.76-19.28L180.76-19.28Z"></path>
    <path transform="" stroke="none" d="M200.68-16.32Q201.64-18.60 203.68-19.82Q205.72-21.04 208.64-21.04L208.64-21.04L208.64-19.08L208.16-19.12Q204.68-19.12 202.72-16.94Q200.76-14.76 200.76-10.88L200.76-10.88L200.76 0L198.76 0L198.76-20.88L200.68-20.88L200.68-16.32Z"></path>
    <path transform="" stroke="none" d="M218.08-16.32Q219.04-18.60 221.08-19.82Q223.12-21.04 226.04-21.04L226.04-21.04L226.04-19.08L225.56-19.12Q222.08-19.12 220.12-16.94Q218.16-14.76 218.16-10.88L218.16-10.88L218.16 0L216.16 0L216.16-20.88L218.08-20.88L218.08-16.32Z"></path>
    <path transform="" stroke="none" d="M233.56 0L233.56-20.88L235.56-20.88L235.56 0L233.56 0ZM234.56-25.96Q233.88-25.96 233.40-26.42Q232.92-26.88 232.92-27.56L232.92-27.56Q232.92-28.24 233.40-28.72Q233.88-29.20 234.56-29.20L234.56-29.20Q235.24-29.20 235.72-28.74Q236.20-28.28 236.20-27.60L236.20-27.60Q236.20-26.92 235.72-26.44Q235.24-25.96 234.56-25.96L234.56-25.96Z"></path>
    <path transform="" stroke="none" d="M254.56-1.64Q256.60-1.64 258.34-2.38Q260.08-3.12 261.24-4.56L261.24-4.56L262.40-3.24Q261.04-1.56 259.00-0.70Q256.96 0.16 254.52 0.16L254.52 0.16Q251.40 0.16 248.94-1.20Q246.48-2.56 245.10-4.96Q243.72-7.36 243.72-10.44L243.72-10.44Q243.72-13.52 245.02-15.92Q246.32-18.32 248.64-19.68Q250.96-21.04 253.88-21.04L253.88-21.04Q256.60-21.04 258.78-19.78Q260.96-18.52 262.26-16.30Q263.56-14.08 263.68-11.32L263.68-11.32L246.04-7.88Q246.80-5 249.08-3.32Q251.36-1.64 254.56-1.64L254.56-1.64ZM253.88-19.28Q251.52-19.28 249.64-18.18Q247.76-17.08 246.72-15.10Q245.68-13.12 245.68-10.60L245.68-10.60Q245.68-10.16 245.76-9.36L245.76-9.36L261.68-12.48Q261.40-14.36 260.36-15.92Q259.32-17.48 257.64-18.38Q255.96-19.28 253.88-19.28L253.88-19.28Z"></path>
    <path transform="" stroke="none" d="M273.80-16.32Q274.76-18.60 276.80-19.82Q278.84-21.04 281.76-21.04L281.76-21.04L281.76-19.08L281.28-19.12Q277.80-19.12 275.84-16.94Q273.88-14.76 273.88-10.88L273.88-10.88L273.88 0L271.88 0L271.88-20.88L273.80-20.88L273.80-16.32Z"></path>
    </g>
        </svg>
      </g><g opacity="1" transform="rotate(0 142.56009999999998 0)">
        <svg width="110.8799" height="112.175" x="142.56009999999998" y="0" version="1.1" preserveAspectRatio="none" viewBox="21.093034744262695 19.986127853393555 158.20106506347656 160.0488739013672">
          <g transform="matrix(1 0 0 1 0 0)"><g><path d="M110.2 78.2c1.3-3.8 1.3-7.3.8-11.2-.7-5.9 0-10.9.7-16.8.4-3.5.5-7.3-.5-10.8-.9-3.6-4.5-5.3-6.2-8.5-7.1-13.4-29.5-13.5-40.4-5.5-.6.5-.7 1.7.2 1.8 11.3 2.1 23.8 7 26.9 19.5.7 2.9 1.4 6.8.8 9.7-.8 4.3-1.2-2.3-1.4-3.4-.4-2.6-.7-5.2-1.8-7.6-1.9-4.1-5.3-5.9-8.8-8.6-3.9-3-6.1-7-11.2-8.4-4.4-1.2-9.2-.2-12.9 2.4-4.2 3-6.7 7.7-11.5 9.9-.9.4-.5 1.9.5 1.9 7.1-.3 14.7-1.8 21.7.4 6.8 2.2 8.7 8 12.1 13.5 3 4.9 6.9 9.1 10.7 13.2 4.4 4.9 10.6 10.3 12.2 16.9.3 1.3 2.2.7 1.9-.5-1.5-6.1-6.4-10.7-10.4-15.3C88.4 65 83 59.3 79.1 52.1c-2.5-4.7-5.2-8.7-10.4-10.6-7.4-2.7-15.5-1.1-23.1-.8l.5 1.9c4-1.9 6.4-5.3 9.6-8.3 5.9-5.6 14.3-5.6 19.9.5 3.3 3.6 8.8 6 11.4 10.2 2.7 4.4 2.4 10.2 3.5 15.2.1.4.5.8 1 .7 6-.3 2.8-13.8 1.6-17.2C88.6 31.9 77 27.3 65.6 25.3l.2 1.8c6.5-4.7 14.9-5.8 22.7-4.4 3.4.6 6.7 1.7 9.6 3.6 4 2.5 4.4 5.9 7.3 9.1 2.5 2.8 4.4 5.3 4.6 9.4.2 3.9-.7 7.7-1.2 11.6-.9 7.1 1.9 14.4-.5 21.3-.5 1.2 1.5 1.7 1.9.5z" data-color="1" class="aLgOaV3zRcolors-0iWfcBCVg"></path><path d="M106.9 83.3c2-4.3-1.2-9.2-2.2-13.4-1.8-8-.4-16.7-1.6-24.8-.9-6.1-2.7-11.4-8-14.9-2.4-1.6-5.2-2.9-7.9-4-3.7-1.5-8.1-2-10.9-5.1-.9-1-2.3.5-1.4 1.4 3.4 3.8 9 4.3 13.5 6.4 7.2 3.3 11.3 7.4 12.7 15.4 1.2 7.3.8 14.9 1.3 22.3.3 4.5 4.7 11.8 2.8 15.8-.6 1.1 1.1 2.1 1.7.9z" data-color="1" class="aLgOaV3zRcolors-0iWfcBCVg"></path><path d="M101.3 89.2c-2.6-.8-4.8-6.9-6.2-9.1-2.3-3.5-4.5-7.2-7.1-10.5-2.9-3.6-6.1-7-8.9-10.7-2.2-2.9-4.1-6-6.8-8.4-5.9-5.3-13.8-5.2-21.3-6-6.3-.7-10 .7-12.6 6.5-1.1 2.3-4 9 1 8.5 2.2-.2 4.5-1.4 6.8-1.7 2-.2 4-.3 6-.5 5.6-.6 10.9-.8 15.9 2.5 2.9 1.9 5.4 4.4 8.4 6.3 1.4.9 5.1 2.6 5.3 4.4.4 3.2-3.5 1.3-4.7.6-2.7-1.8-4.6-4.9-7.1-7-2.2-1.9-4.8-3.3-7.6-4-8.9-2.2-16.6.6-24.8 3.8-2.5 1-4.5 1.6-5.9 4.1-1.5 2.8-1.8 6.3-2 9.4 0 .7.9 1.3 1.5.9 6.3-4.4 13.6-7.3 21.2-8.1 7.2-.8 13 1.3 19 5.2 5.5 3.6 10.7 7.7 16.2 11.3 4.2 2.8 8.4 5.7 13.6 5.1 1.3-.1 1.3-2.1 0-2-7 .7-14.1-5.7-19.5-9.6-5.2-3.8-10.4-8-16.4-10.4-11.4-4.6-25.6.1-35.2 6.8l1.5.9c.2-4.4.8-9 5.2-11.2 3.1-1.5 6.9-3.1 10.1-3.9 9.1-2.4 18-.8 24.5 6.1 2.6 2.7 5.7 6.6 10 6.3 2.9-.3 3.3-2.8 1.9-5.1-1.1-1.9-3.2-3.2-4.9-4.4-2.8-1.9-5.4-4.1-8.2-6.1-6.5-4.8-13.1-4.1-20.7-3.4-1.8.2-3.5.2-5.3.5-1.3.2-3.5 1.3-4.6 1.1-1.2-.2-1.9 3.1-.9-2.1.1-.6.5-1.1.6-1.7 1.1-3.3 3.3-6.4 6.8-7 3.6-.6 8.2.5 11.9.9 5.5.5 10.3 2 14.1 6.2 2.7 2.9 4.7 6.4 7.3 9.4 3.4 4.1 7 7.9 9.9 12.4 2.4 3.6 4.8 7.3 6.9 11.1 1.1 1.9 2.1 4.1 4.3 4.8 1.5.2 2-1.8.8-2.2z" data-color="1" class="aLgOaV3zRcolors-0iWfcBCVg"></path><path d="M97.4 61.8c-2.3 2.1-2.5 7.5-1.5 10.2.6 1.5 3.2 4.7 4.6 2.3 1.1-1.8 2.4-15.1-2.9-12.7-1.2.5-.2 2.3 1 1.7.3-.1.8 2.4.8 2.7.2 1.7 0 3.5-.3 5.2-.1.4-.1.8-.2 1.2.1.5 0 .6-.3.1-.8-.2-1-2-1.1-2.6-.3-1.8-.1-5.3 1.3-6.7 1-.8-.5-2.3-1.4-1.4z" data-color="1" class="aLgOaV3zRcolors-0iWfcBCVg"></path><path d="M98.7 93c-4.9.7-9.7-2.5-13.4-5.3-4-2.9-8-5.7-12.2-8.3-5.4-3.3-9.8-8.7-16.7-7.7-4.4.6-8.6 2.6-13 3.4-3.5.7-9.2.5-12.2 2.8-1.7 1.3-1.5 3.4-1.8 5.3-.8 4.8-1.9 9.3-2.2 14.2-.1 1.1 1.4 1.2 1.9.5 5.3-7.6 10.8-13.3 20.5-14.9 6.5-1 13.5-.4 19.4 2.8.9.5 2.6 1.1 3.1 2.1 2 4.2-4.1 4.4-6.3 4.3-3.8-.2-7.4-1.2-11-1.3-3.9-.1-7.7.6-11.6.5-3.6-.1-6.7-2.1-10.3-1.4-1.3.3-.7 2.2.5 1.9 2.7-.6 5.4 1.1 8.1 1.4 3 .3 5.9-.2 8.8-.3 5.9-.3 11.6 1.7 17.4 1.2 5.3-.4 9.5-4.8 4.4-8.8-5.7-4.4-14.3-5.4-21.2-4.6-11 1.2-17.5 7.4-23.6 16.1l1.9.5c.4-5 1.5-9.7 2.3-14.6.8-4.8 5.4-4.6 9.6-5.3C49 76.1 57.6 70.8 65 76c6.1 4.3 12.5 8.4 18.5 12.9 4.5 3.4 9.8 6.9 15.7 6.1 1.3-.2.8-2.2-.5-2z" data-color="1" class="aLgOaV3zRcolors-0iWfcBCVg"></path><path d="M28.3 91c-2.6.3-4.3.9-4.8 3.5-.5 2.3-.4 4.8-1 7.2-.6 2.4-1.2 4.6-1.4 7.1-.1.7.9 1.3 1.5.9 6.3-4.8 11.5-10 19.7-11.5 8.7-1.6 17.7-.1 26.4 1.1 6.1.8 11.9 1.8 17.9 3 4.3.9 7.9.2 10.7-3.3.8-1-.6-2.4-1.4-1.4-4.5 5.5-10.2 1.9-15.8 1.1-7.3-1.1-14.8-2-22.1-2.7-6.4-.6-13.2-.8-19.4 1-6.9 2-11.5 6.8-17 10.9l1.5.9c.3-3.4 1.6-6.5 2.2-9.9.4-2.6.4-5.5 3.6-5.9 1.2-.2.7-2.1-.6-2z" data-color="1" class="aLgOaV3zRcolors-0iWfcBCVg"></path><path d="M80.1 89.5c-1.6.4-3.6 1.3-4.3 2.9-.8 2 1.3 3.5 3 4 1.5.4 2.9-.3 3.3-1.8.4-1.5.1-3.2-.7-4.5-.6-1.1-2.4-.1-1.7 1 .3.6 1.3 3.5-.2 3.4-.6-.1-2.3-.8-1.7-1.6.6-.8 1.9-1.2 2.8-1.5 1.3-.3.7-2.2-.5-1.9z" data-color="1" class="aLgOaV3zRcolors-0iWfcBCVg"></path><path d="M83.1 121.2c-3.7.2-6.8 2.2-10.6 2.5-3.7.3-7.2-.4-10.9-.6-7.4-.4-13.7 3.1-20.5 5.5-3.2 1.1-6.8 2.4-10.1 3.1-3 .7-6.9-.2-7.1-4-.1-3.1 2.3-5.1 4.6-6.6 5.9-3.7 12.5-4.5 18.9-6.4 3.8-1.1 8.2-3.1 9.8-7 1.1-2.6.1-5.1-2.9-5.3-4.6-.4-10.3 3.7-14 5.7-3 1.6-5.8 3.4-8.8 5-2.9 1.6-3.5 1.5-4.2-1.2-.6-2-.2-5.3.3-7.2.4-1.2-1.6-1.8-1.9-.5-.7 2.5-2 10.5 1.2 12.1 1.8.9 4.1-.6 5.6-1.5 3.5-1.8 6.8-4 10.2-5.8 2.4-1.3 4.8-2.6 7.3-3.6.6-.2 2-1 2.6-.9 6.1 1.5-.9 6.1-2.2 6.8-2 1-4.2 1.5-6.4 2-6.2 1.4-12.6 3-18 6.7-3.5 2.4-5.6 5.1-3.8 9.4 2.4 5.8 6.3 4.9 11.2 3.3 3.7-1.2 7.5-2.2 11.2-3.6 3.8-1.5 7.5-3.2 11.5-3.9 4.8-.8 9.4.5 14.2.4 1.8 0 3.8-.2 5.6-.6 2.2-.5 4.5-1.9 6.8-2 1.7.2 1.7-1.8.4-1.8z" data-color="1" class="aLgOaV3zRcolors-0iWfcBCVg"></path><path d="M74.8 115.6c-2.6-1.4-6.4-.6-9.1.4-1.8.6-5.2 2.1-4.3 4.6 1.1 2.9 6.5 2.4 8.8 1.9 2.5-.5 6.6-3.6 4.9-6.5-.6-1.1-2.4-.1-1.7 1 .6 1.1-1.6 2.6-2.3 3-1 .6-2 .7-3.1.7-1 .1-5.4.3-4.4-1.4.8-1.3 3.5-1.8 4.8-2.1 1.6-.4 3.8-.8 5.3.1 1.2.6 2.2-1.1 1.1-1.7z" data-color="1" class="aLgOaV3zRcolors-0iWfcBCVg"></path><path d="M67.8 104.7c-1.8.5-3.1 2.3-3 4.2.2 1.9 2.2 3.2 4 2.6 3.4-.9 3.1-7.1-.8-6.8-1.3.1-1.3 2.1 0 2 1.5-.1 1.6 2.4.4 2.9-.7.3-1.6-.2-1.6-.9 0-.9.7-1.7 1.5-2 1.3-.4.8-2.4-.5-2z" data-color="1" class="aLgOaV3zRcolors-0iWfcBCVg"></path><path d="M82.2 121.7c-3.9 7.9-17.1 5.5-24.3 5.8-4.4.2-8.2 1.7-12.1 3.5-2.4 1.1-4.9 2.2-7.3 3.3-3.9 1.7-6.9 1.9-11.1 2.1-.6 0-1.2.6-1 1.3.8 2.9 2.5 7.1 6.2 6.6 2.3-.3 4.5-2.2 6.4-3.3 2.4-1.3 4.9-2.4 7.5-3.3 1.2-.4 2.5-.8 3.8-1.1.9-.2 8.7-1.4 3.8 1.8-2.1 1.4-5.8.7-8.2 1.1-5 .8-10.3 2.8-13.6 6.8-.5.6-.3 1.4.4 1.7 5.6 2 5.4 5.7 5.2 10.4 0 .9 1.1 1.3 1.7.7 2.6-2.5 3.9-5.4 7.5-6.9 3.4-1.4 7.2-1.3 10.8-1.8 4.5-.7 8-2.1 10.8-5.8.8-1-1-2-1.7-1-4.3 5.6-11.4 4.6-17.5 5.9-5.8 1.2-7.3 4.3-11.2 8.2l1.7.7c.1-2.8.9-6.3-.7-8.9-1.3-2.1-3.7-2.7-5.9-3.5l.4 1.7c4.4-5.3 11.1-5.8 17.4-6.6 3.2-.4 6.2-1.2 7.2-4.5.1-.4-.1-.9-.5-1.1-4.2-2.7-10.1-.4-14.3 1.3-1.9.8-3.8 1.6-5.6 2.6-1.3.7-2.8 2-4.2 2.4-3.8 1.1-4.5-1.7-5.4-4.6l-1 1.3c3.4-.2 6 .2 9.2-1.1 2.4-1 4.9-2.1 7.2-3.2 6.2-2.8 11.3-4.7 18-4.7 7.1 0 18.3.8 22.1-6.8.6-1.1-1.1-2.1-1.7-1z" data-color="1" class="aLgOaV3zRcolors-0iWfcBCVg"></path><path d="M109.7 78.8c2.3-4.3 7.3-6.1 10.3-10 3.8-5 5.9-10.4 11.2-14.2 5.2-3.7 11.7-5.7 18.1-4.3 5.7 1.3 10.8 4.6 16.5 5.8l.3-2c-10.3 1.1-20.8 2.7-30.2 7.1-9.6 4.5-16.6 13.7-27.2 16.1-1.3.3-.7 2.2.5 1.9 9.3-2 15.3-9.2 23.2-13.9 10.2-6.1 22.1-8.1 33.7-9.2 1-.1 1.5-1.7.3-2-6.6-1.4-12.6-5.7-19.5-6.3-5.4-.5-10.9 1.3-15.4 4.2-4.8 3.1-7.8 7.1-10.6 11.9-2.3 3.8-4.7 6.2-8.2 8.7-2 1.4-3.3 2.9-4.5 5-.9 1.3.9 2.3 1.5 1.2z" data-color="1" class="aLgOaV3zRcolors-0iWfcBCVg"></path><path d="M103.5 87.5c5.6-1.4 11-.4 16.7-1.1 6-.8 11.5-3.9 17.2-5.6 11.8-3.5 29.2-5.3 38.4 4.6.8.8 2.2-.2 1.6-1.2-1.8-3-3.7-6-4.4-9.5-.4-2-.4-4.1-.7-6.1-.5-3-1.4-5.7-4.4-6.8-.4-.1-.9.1-1.1.5-2.5 5.1-8.5 6.4-13.4 8.3-3.3 1.2-15.2 6.7-16.6 2-1.2-3.8 7.8-5.9 10.6-6.5 6.3-1.4 12.5-2.3 18.4-4.9.7-.3.6-1.4 0-1.7-3-1.6-6.1-2.8-9.2-4.2-1.2-.5-2.2 1.2-1 1.7 3.1 1.4 6.2 2.5 9.2 4.2v-1.7c-9 3.9-20.7 2.7-28.6 9.2-5.2 4.3-.9 7.8 4.6 7.6 4.6-.2 8.9-2.1 13.2-3.7 3.9-1.4 8.2-2.5 11.4-5.2.2-.1 2.5-3 2.7-3 2.4-.1 2.6 6.5 2.7 7.7.6 5 2.4 8.8 5 13.1l1.6-1.2c-8.3-8.8-22-8.7-33.1-6.8-7.2 1.2-13.5 4.3-20.4 6.4-6.8 2-13.9.4-20.8 2-1.4.3-.8 2.2.4 1.9z" data-color="1" class="aLgOaV3zRcolors-0iWfcBCVg"></path><path d="M122.4 75.3c-2.2 2.3-5.7 1.4-8.3 2.8-1.3.7-2.9 2.2-2.8 3.8.3 2.9 5 2.9 7.1 2.5 3.9-.7 9.2-3.2 9.5-7.7.1-1.5-.8-3.5-2.5-3.7-1.6-.2-2.4 1.4-3.2 2.5-.8 1 1 2 1.7 1 .1-.2.5-.9.6-.9l1.2 1.5-.4 1c-.7 1.4-1.9 2.4-3.3 3.1-2 1-4.3 1.7-6.5 1.4-.8-.1-2.1-.2-2.2-1.1-.1-1.3 3-2.1 3.9-2.2 2.4-.4 4.7-.5 6.5-2.5 1-1-.4-2.4-1.3-1.5z" data-color="1" class="aLgOaV3zRcolors-0iWfcBCVg"></path><path d="M101.2 91.5c2.7 4.3 4.9 7.8 9.8 10 6.4 2.8 13.6 2.8 20.3 4.4 7.9 1.9 14.9 4.6 20.9 10.3 2.7 2.5 5.6 5.1 6.8 8.7.9 2.9 1.1 6 1.7 9 .2.9 1.4.9 1.8.2.8-1 1.2-2.2 1.9-3.3 1-1.8 2.6-2.9 3.7-4.6 1.6-2.7 1-5.9 3.5-8.3.4-.4.4-1.1 0-1.4-4.5-4-8.1-9.5-13.8-12-4.1-1.8-8.8-1.3-13.1-2.7-1.9-.6-7-1.2-8.4-2.5-4.8-4.4 1.3-2.4 2.1-2 1.4.7 2.6 1.8 3.9 2.6 3.5 2 6.6 2.1 10.6 2.1 9.1.2 14.2 5.4 21.6 9.9.8.5 1.6-.3 1.5-1.1-1-6.4.3-12.4 2.2-18.4.5-1.6 1.8-3.9.6-5.5-1.7-2.1-7.6-2.2-9.9-2.8-5.1-1.2-10.2-2-15.4-2.3-4.7-.3-9.4-.2-14 1-5.6 1.4-10.6 3.8-16.4 4.3-4.9.4-9.9.3-14.8.7-2.5.2-5.3.3-7.1 2.3-.9 1 .6 2.4 1.4 1.4 2.2-2.5 7.8-2 10.9-2.1 3.9-.2 7.9 0 11.7-.6 4-.6 7.7-2 11.5-3.2 4.9-1.6 9.7-2.1 14.8-2 5 .2 10 .8 14.9 1.9 2.6.6 10.3 1.1 10.5 4 .1 1.5-1.3 4.1-1.8 5.7-.5 2-1 3.9-1.3 5.9-.5 3.4-.4 6.8.1 10.2l1.5-1.1c-4.5-2.7-8.4-6.6-13.3-8.6-6.4-2.7-13.5-.1-19.6-3.9-2.4-1.5-5.5-4.1-8.7-3.5-2.1.4-2.8 2.1-2 4.1 1.4 3.1 5.7 3.4 8.5 4.2 3 .9 5.7 2 8.8 2.5 3.7.6 6.9.6 10.1 2.7 2.6 1.8 4.8 4.2 7 6.5.3.3 2.8 2.5 2.9 2.9.1.5-.9 1.7-.9 1.8-1.3 3.2-1.6 5.4-3.7 8.4-1.4 1.9-2.3 4-3.7 5.8l1.8.2c-1.1-5-1.1-9.9-4.5-14-3.7-4.6-8.8-9-14.2-11.4-7.2-3.2-14.8-4.5-22.5-5.7-3.7-.6-7.7-1.3-11-3.2-3.5-2-5.3-5.1-7.3-8.5-.8-1.1-2.6-.1-1.9 1z" data-color="1" class="aLgOaV3zRcolors-0iWfcBCVg"></path><path d="M109.7 92.2c3.4-1 5.7-.2 8.8.9 1.4.5 6.4 2 3.8 4-1.8 1.4-5.3-.4-7.2-1.1-.8-.3-7.5-2.5-5.1-3.9 1.1-.7.1-2.4-1-1.7-3.7 2.2-.2 5.5 2.3 6.4 3.3 1.2 8.2 4.1 11.7 2.5 3.2-1.5 2.4-5-.2-6.5-4-2.4-9.1-3.8-13.6-2.5-1.3.3-.8 2.3.5 1.9z" data-color="1" class="aLgOaV3zRcolors-0iWfcBCVg"></path><path d="M150.2 85.3c-3 .5-5.9 2.5-5.5 5.9.3 3.1 3.7 4.2 6.3 3.9 2.6-.3 4.7-2.3 4.7-5 0-3-2.3-5.2-5.3-4.8-1.3.2-1.3 2.2 0 2 1.8-.2 3.3.9 3.3 2.8 0 1.8-1.5 2.9-3.2 3-1.6.1-3.7-.4-3.9-2.2-.3-2.3 2.2-3.4 4.1-3.7 1.3-.2.8-2.1-.5-1.9z" data-color="1" class="aLgOaV3zRcolors-0iWfcBCVg"></path><path d="M98.2 94.4c1.7 7.1 6.4 10.3 11.5 15.2 2.8 2.7 5.6 5.4 8.1 8.4 2.6 3.1 4.5 6.8 7.1 9.9 2.3 2.7 5.4 4.5 7.8 7.1 3.1 3.4 4.5 8 4.2 12.5-.2 2.3-2.4 7.9.9 9 3.4 1.1 9.1-5 10.2-7.5 2.6-5.6-1.8-10.8-4.7-15.2-4.1-6.1-9-10-14.7-14.4-1.6-1.3-7.4-7.5-2.9-7 1.8.2 4 2.1 5.4 3.1 3.6 2.6 7 5.6 10.1 8.9 3.2 3.3 4.9 6.9 5.7 11.4.6 3.3 1.2 6 3.3 8.6.4.5 1.3.3 1.6-.2 1.5-2.6 3.3-3.5 5.7-4.9.7-.4 1.4-.6 1.8-1.2.6-1 .4-2 .2-3-.7-6.3-2.4-12.4-7-17-4.5-4.4-10.4-6.5-16.4-7.9-3.3-.8-6.7-1.2-10-1.9-4.3-1-6.8-3.2-9.5-6.6-.8-1-2.2.4-1.4 1.4 3.2 4 6 6.2 11.1 7.2 6.3 1.2 12.8 2 18.6 4.9 6.8 3.4 10.6 8.8 12 16.2.2 1.1.9 3 .7 4.2-.5 2.5-.3 1-2.1 2.4-2.4 1.9-3.8 2.4-5.3 5.2l1.6-.2c-2.7-3.3-2.4-7.4-3.6-11.3-.9-3-2.6-5.6-4.7-7.9-2.1-2.3-4.6-4.5-7-6.5-2.3-2-12.1-11-14.7-5.4-1.6 3.3 3 6.9 5.1 8.6 2.9 2.3 6.1 4.2 8.7 6.7 3.3 3.2 5.8 7.1 8.2 11 1.4 2.2 3 4.3 2.9 7-.1 3-1.8 5-4.1 6.9-.8.7-3.4 2.9-4.5 1.4-.6-.8.6-4 .7-5 .6-5.2-.8-10.4-4.2-14.3-2.8-3.3-6.6-5.4-9.1-8.9-2.4-3.4-4.6-6.8-7.4-9.9-6-6.8-15.7-12.3-17.9-21.4-.3-1.4-2.3-.9-2 .4z" data-color="1" class="aLgOaV3zRcolors-0iWfcBCVg"></path><path d="M107.9 77.7c-1.5 2.9-3.4 5.1-5.3 7.7-2.3 3.2-4 6.7-5.9 10.1-3.5 6.5-7.6 12.7-10.9 19.3-3.2 6.2-7.2 11.2-11.4 16.7s-7.3 11.7-10.7 17.7c-3.4 6-8.1 10-12.6 15.1-1.8 2-2.5 4.5-4 6.6-3.2 4.2-3.6-3.3-3.4-5.9.1-1.9-.2-3.4-.3-5.3-.1-1.5-.8-.5-.3-1.5.6-1.4 4-2.7 5.5-3.2 5.5-2 11.3-2.2 16.7-4.7 1.2-.6.1-2.3-1-1.7-7.8 3.7-17.2 2.7-23.6 9.3-.4.4-.4 1 0 1.4 2.3 2.1.7 6.7 1.1 9.5.4 2.6 1.5 4.9 3.2 6.9.3.4 1.1.4 1.4 0 2.8-3.6 4.1-7.8 7.3-11.2 2.7-2.8 5.8-5.3 8.1-8.4 6.3-8.4 10-18.3 16.7-26.4 6.2-7.5 9.8-16.1 14.9-24.3 2.8-4.5 5.2-9.1 7.8-13.7 2.5-4.6 6.2-8.3 8.5-12.9.6-1.2-1.2-2.2-1.8-1.1z" data-color="1" class="aLgOaV3zRcolors-0iWfcBCVg"></path><path d="M93.8 100.9c-4.8 11.3 3.8 22.5 6.1 33.5 1.6 7.4 5.7 15.4 3.4 22.9-.9 2.9-2.5 5.6-3.3 8.6-1.1 3.9-1.7 7.8-3.4 11.5-.3.6 0 1.6.9 1.5 6.1-.7 13.8-3 17.5-8.4 1.9-2.6 1.6-4.9.9-7.9-1.3-5-1.9-10.2-3.2-15.2-1.1-4.2-2.9-8.2-3.9-12.5-.2-1-1.2-3.5-.6-4.6l2.5-1.6.5 1c1.3 1.4 1.2 5.1 1.5 6.9.8 4.7 2.8 8.2 5.5 12.1 1.7 2.5 3.6 5 4.4 8 .6 2.5.5 5.3.9 7.9.1.8 1.2.9 1.7.4 1.6-1.6 2.9-3.5 4.8-4.7 1.5-.9 3.2-1.3 4.4-2.7 1.6-2 1.5-4.4.9-6.8-1.1-4.2-2.4-8.2-3-12.5-.5-3.3-.7-5.7-2.5-8.6-.7-1.1-2.4-.1-1.7 1 2.9 4.8 2.6 11.6 4.1 17 1.3 4.5 2.8 7.9-2.5 10.6-2.5 1.3-3.9 3.4-5.9 5.3l1.7.4c-.9-5.5-.9-9.4-4.1-14.2-3.5-5.4-6-9.7-7-16-.4-2.6-3.9-12.5-7.4-6.9-1.6 2.6-.7 6.5.1 9.2 1.4 5.1 3.4 10 4.6 15.2 1.2 5.6 4.6 15.1.5 19.6-3.4 3.7-9.7 5.4-14.5 5.9l.9 1.5c2.5-5.6 3.3-11.8 5.7-17.5 2.6-6.3 2.5-10.7.3-17.1-2.2-6.8-3.5-13.6-5.9-20.4-2.5-6.8-5.9-14.4-2.9-21.5.2-1-1.5-2.1-2-.9z" data-color="1" class="aLgOaV3zRcolors-0iWfcBCVg"></path><path d="M100 104.4c-4.8 3.4-.6 9.4 2.5 12.3 1.9 1.8 7.5 7.4 9.6 2.9 1.6-3.4-2.4-8.2-4.4-10.6-1.3-1.5-5.5-6.7-7.9-4.4-.9.9.5 2.3 1.4 1.4.5-.4 4.2 3.4 4.7 4 1.7 1.9 3.9 4.6 4.3 7.3.7 4.3-4.5-.3-5.6-1.4-2.1-1.9-7.4-7.1-3.6-9.8 1.1-.7.1-2.4-1-1.7z" data-color="1" class="aLgOaV3zRcolors-0iWfcBCVg"></path><path d="M82.1 122c-.8 3.3-3.8 5.9-5 9.1-1.3 3.5-1.6 7.7-1.3 11.4.3 4 1.7 7.7 1.9 11.7.3 6.1-1.2 10.9-3.9 16.3-.2.4-.2 1.1.4 1.4 3.1 1.4 7.8 1.5 11 .2 2.7-1.1 2.2-3.7 2.2-6.4 0-3 .4-6 .6-9.1.1-2.2-1.3-6.8-.4-8.7-.2-.8.2-1.1 1.1-.9 1-.4 1.3-.1 1 .9.2.5 0 1.5-.1 2.1-.3 4-1.9 7.3-3.6 10.9-.5 1.2 1.2 2.2 1.7 1 2.2-4.8 4.3-9.5 3.9-15-.1-2.2-1-5-3.8-3.7-3.6 1.8-2 7.9-1.9 10.7.1 3.6-.5 7.2-.6 10.8 0 1.3.6 4.4-.7 5.4-1.8 1.4-7.8.8-9.5 0l.4 1.4c3.8-7.6 5.2-15.1 3.3-23.6-1.2-5.3-1.7-10.9.2-16.1 1.2-3.3 4.2-6 5-9.4.4-1.2-1.6-1.7-1.9-.4z" data-color="1" class="aLgOaV3zRcolors-0iWfcBCVg"></path><path d="M81.2 171.3c-.7 3-1.5 4.5-1.6 7.7 0 .7.9 1.3 1.5.9 4.3-2.9 8.2-2 12.7 0 .6.3 1.3.1 1.5-.6 1.1-3.5 1.2-7.1 2.6-10.5 1.4-3.2 3.1-6.3 4.1-9.6 2.3-7.3.5-13.9.5-21.3 0-1.3-2-1.3-2 0 0 7.8 1.8 14.9-1 22.5-1.2 3.2-3 6.1-4.1 9.3-1.1 3-1.1 6.1-2 9.1l1.5-.6c-5.3-2.4-9.6-3.5-14.7 0l1.5.9c.1-2.6 1-4.7 1.5-7.2.2-1.3-1.7-1.9-2-.6z" data-color="1" class="aLgOaV3zRcolors-0iWfcBCVg"></path><path d="M76.4 133.4c-.8 4-2.5 7.8-3 11.9-.4 3.8 0 7.6-.2 11.4-.3 4.1.6 7.8-.6 11.9-.7 2.7-.8 3.1-3.4 3.5-1.5.2-2.9.4-4.4.8l1.2.7c-.7-4.6 6.1-9.2 4.5-13.8-.7-2.2-2.9-2.5-4.8-1.5-3.4 2-3.2 6.8-4.3 9.9-1.2 3.7-5.9 2.5-9.1 3.9-1 .4-5.3 4.3-6 2.1-.4-1.2-2.3-.7-1.9.5.8 2.5 2.2 3.6 4.7 2.3 2.7-1.5 4.4-3.5 7.7-4.1 1.5-.3 4.4-.1 5.6-1.3 1-.9 2.8-14.7 6-10 .6.9-3.2 6.9-3.7 8-.7 1.7-1 2.6-.8 4.4.1.5.8.8 1.2.7 2.2-.5 5.8.2 7.6-1.3 1.8-1.5 2.5-7.2 2.5-9.5 0-1.9-.5-3.8-.5-5.8.1-2.3.3-4.5.3-6.9-.2-6.2 1.8-11.4 3-17.3.6-1.2-1.3-1.7-1.6-.5z" data-color="1" class="aLgOaV3zRcolors-0iWfcBCVg"></path><path d="M68.2 147.2c-1.1 1.6-2.8 3.9-2.2 6 .3 1 1.2 1.7 2.3 1.7 1.3.1 2.3-.9 3-1.8 1.2-1.6 1.4-3.6.9-5.5-.2-.8-.6-1.6-1.5-1.9-1.1-.3-1.9.6-2.5 1.5-.8 1.1 1 2.1 1.7 1 .4-.6.4-.3.1-.6.1.1.2.4.2.5.1.5.1 1 .2 1.5 0 1-.2 1.7-.9 2.5-.3.4-1.1 1.2-1.6.5-.2-.4.1-1.2.3-1.6.4-1 1.1-2 1.7-2.9.8-1-1-2-1.7-.9z" data-color="1" class="aLgOaV3zRcolors-0iWfcBCVg"></path><path d="M89.9 119.1c-3.1.5-3.7 3.1-3.1 5.7.3 1.5 1 2.9 1.5 4.3.5 1.3.8 2.8 1.6 3.9 2.4 3.3 4.7-1.3 5-3.6.2-2.1-.3-3.8-1.1-5.7-.8-1.9-1.2-3.6-3-4.6-1.1-.6-2.2 1.1-1 1.7 1.9 1 3.2 5.6 3.2 7.6 0 .9-.4 3.9-1.6 3.1-.4-.3-.7-1.8-.9-2.3-.8-2.1-3.9-7.7-.1-8.3 1.3-.1.7-2-.5-1.8z" data-color="1" class="aLgOaV3zRcolors-0iWfcBCVg"></path><path d="M63.2 132.1c-1.7 1-3.6 3.2-2.2 5.2.9 1.4 3.1 1.5 4.5 1 1.8-.6 3.4-2.6 3.2-4.5-.1-1.1-.9-2.1-2-2.4-1.2-.4-2.4.1-3.5.7s-.1 2.3 1 1.7c.5-.3 1.4-.8 2-.5.6.3.5.9.3 1.4-.4.8-1.1 1.5-2 1.7-.5.1-1.6.3-1.9-.2-.7-1 .9-2 1.5-2.4 1.2-.6.2-2.4-.9-1.7z" data-color="1" class="aLgOaV3zRcolors-0iWfcBCVg"></path></g></g>
        </svg>
      </g></svg>