<?xml version="1.0" encoding="UTF-8"?>
<svg xmlns="http://www.w3.org/2000/svg" xmlns:xlink="http://www.w3.org/1999/xlink" width="156px" height="40px" viewBox="0 0 156 40">
  <!-- Generator: Sketch 47.1 (45422) - http://www.bohemiancoding.com/sketch -->
  <title>appscatter-logo</title>
  <desc>Created with Sketch.</desc>
  <defs></defs>
  <rect fill="#282836" height="100%" width="100%"></rect>
  <g id="Symbols" stroke="none" stroke-width="1" fill="none" fill-rule="evenodd">
    <g id="H&amp;N/assets/logo" fill-rule="nonzero">
      <g id="appscatter-logo">
        <g id="icon" fill="#00C850">
          <g id="Group">
            <path d="M27.0886602,12.4036697 L15.6153846,14.9357798 C15.4321055,14.9724771 15.2121705,14.8623853 15.1755146,14.6422018 L12.6462622,3.1559633 C12.6096064,2.97247706 12.7195739,2.75229358 12.9395088,2.71559633 L24.4127844,0.183486239 C24.5960636,0.146788991 24.8159986,0.256880734 24.8526544,0.47706422 L27.3819068,11.9633028 C27.4185627,12.146789 27.3085952,12.3669725 27.0886602,12.4036697 Z" id="Shape"></path>
            <path d="M27.0886602,37.3577982 L15.6153846,39.8899083 C15.4321055,39.9266055 15.2121705,39.8165138 15.1755146,39.5963303 L12.6462622,28.1100917 C12.6096064,27.9266055 12.7195739,27.706422 12.9395088,27.6697248 L24.4127844,25.1376147 C24.5960636,25.1009174 24.8159986,25.2110092 24.8526544,25.4311927 L27.3819068,36.9174312 C27.4185627,37.1009174 27.3085952,37.3211009 27.0886602,37.3577982 Z" id="Shape"></path>
            <path d="M14.5890213,24.8807339 L3.11574576,27.412844 C2.93246659,27.4495413 2.7125316,27.3394495 2.67587577,27.1192661 L0.14662333,15.6330275 C0.109967497,15.4495413 0.219934995,15.2293578 0.439869989,15.1926606 L11.9131455,12.6605505 C12.0964247,12.6238532 12.3163597,12.733945 12.3530155,12.9541284 L14.882268,24.440367 C14.9189238,24.6605505 14.7723005,24.8440367 14.5890213,24.8807339 Z" id="Shape"></path>
            <path d="M39.588299,24.8807339 L28.1150235,27.412844 C27.9317443,27.4495413 27.7118093,27.3394495 27.6751535,27.1192661 L25.145901,15.6330275 C25.1092452,15.4495413 25.2192127,15.2293578 25.4391477,15.1926606 L36.9124233,12.6605505 C37.0957024,12.6238532 37.3156374,12.733945 37.3522932,12.9541284 L39.8815457,24.440367 C39.9182015,24.6605505 39.808234,24.8440367 39.588299,24.8807339 Z" id="Shape"></path>
          </g>
        </g>
        <g id="text" transform="translate(43.620441, 10.642202)">
          <path d="M4.98519321,18.6055046 C2.23600578,18.6055046 0.219934995,17.1376147 0.219934995,14.4587156 C0.219934995,11.7798165 2.27266161,10.3119266 4.98519321,10.3119266 C6.23149151,10.3119266 7.47778982,10.6788991 8.2475623,11.412844 C8.17425063,9.02752294 6.96460816,7.81651376 4.83856988,7.81651376 C4.21542073,7.81651376 3.44564825,7.9266055 3.22571325,7.9266055 C2.93246659,7.9266055 2.8224991,7.81651376 2.74918743,7.44954128 L2.6025641,6.31192661 L2.6025641,6.20183486 C2.6025641,5.90825688 2.7125316,5.79816514 3.07908992,5.72477064 C3.62892741,5.6146789 4.47201156,5.5412844 5.05850488,5.5412844 C8.94402311,5.5412844 10.6668472,7.85321101 10.6668472,11.706422 L10.6668472,17.9082569 C10.6668472,18.2385321 10.5568797,18.3853211 10.2269772,18.3853211 L8.65077645,18.3853211 C8.35752979,18.3853211 8.17425063,18.2752294 8.17425063,17.9082569 L8.17425063,17.5045872 C7.47778982,18.2752294 6.26814735,18.6055046 4.98519321,18.6055046 Z M5.5350307,16.8440367 C7.07457566,16.8440367 8.28421813,15.9633028 8.28421813,14.5321101 C8.28421813,13.0642202 7.07457566,12.146789 5.5350307,12.146789 C3.99548573,12.146789 2.78584326,13.0275229 2.78584326,14.4954128 C2.78584326,15.9266055 3.99548573,16.8440367 5.5350307,16.8440367 Z" id="Shape" fill="#FFFFFF"></path>
          <path d="M12.8661972,5.87155963 L16.4584688,5.87155963 C21.223727,5.87155963 23.7529794,8.29357798 23.7529794,12.0733945 C23.7529794,15.853211 21.1870711,18.4220183 16.4218129,18.4220183 L15.102203,18.4220183 C14.882268,18.4220183 14.8089563,18.4954128 14.8089563,18.7155963 L14.8089563,23.7431193 C14.8089563,24.1834862 14.662333,24.293578 14.2591188,24.293578 L12.8661972,24.293578 C12.462983,24.293578 12.3163597,24.1834862 12.3163597,23.7431193 L12.3163597,6.42201835 C12.3530155,5.94495413 12.462983,5.87155963 12.8661972,5.87155963 Z M21.223727,12.0366972 C21.223727,9.46788991 19.3909354,8.11009174 16.4218129,8.11009174 L15.102203,8.11009174 C14.882268,8.11009174 14.8089563,8.18348624 14.8089563,8.40366972 L14.8089563,15.7798165 C14.8089563,16 14.882268,16.0733945 15.102203,16.0733945 L16.4218129,16.0733945 C19.244312,16.146789 21.223727,14.7889908 21.223727,12.0366972 Z" id="Shape" fill="#FFFFFF"></path>
          <path d="M25.9523294,5.87155963 L29.5446009,5.87155963 C34.3098592,5.87155963 36.8391116,8.29357798 36.8391116,12.0733945 C36.8391116,15.853211 34.2732033,18.4220183 29.5079451,18.4220183 L28.1883351,18.4220183 C27.9684001,18.4220183 27.8950885,18.4954128 27.8950885,18.7155963 L27.8950885,23.7431193 C27.8950885,24.1834862 27.7484651,24.293578 27.345251,24.293578 L25.9523294,24.293578 C25.5491152,24.293578 25.4024919,24.1834862 25.4024919,23.7431193 L25.4024919,6.42201835 C25.4024919,5.94495413 25.5124594,5.87155963 25.9523294,5.87155963 Z M34.2732033,12.0366972 C34.2732033,9.46788991 32.4404117,8.11009174 29.4712893,8.11009174 L28.1516793,8.11009174 C27.9317443,8.11009174 27.8584326,8.18348624 27.8584326,8.40366972 L27.8584326,15.7798165 C27.8584326,16 27.9317443,16.0733945 28.1516793,16.0733945 L29.4712893,16.0733945 C32.2937884,16.146789 34.2732033,14.7889908 34.2732033,12.0366972 Z" id="Shape" fill="#FFFFFF"></path>
          <path d="M38.7452149,14.2385321 C38.8551824,14.2385321 38.9651499,14.3119266 39.1117732,14.4587156 C40.4313832,15.4862385 42.007584,16.2568807 43.8037198,16.2568807 C46.1863489,16.2568807 47.6525822,15.1926606 47.6525822,13.5045872 C47.6525822,11.9266055 46.589563,11.3027523 43.6204406,10.5321101 C40.2114482,9.65137615 38.0854099,8.47706422 38.0854099,5.39449541 C38.0854099,2.09174312 40.7246298,0.183486239 44.0969664,0.183486239 C46.4062839,0.183486239 48.349043,0.990825688 49.9252438,2.20183486 C50.1085229,2.34862385 50.1818346,2.4587156 50.1818346,2.56880734 C50.1818346,2.67889908 50.1085229,2.78899083 49.9985554,2.97247706 L49.2654388,4.0733945 C49.1554713,4.29357798 49.0455038,4.36697248 48.8988805,4.36697248 C48.788913,4.36697248 48.6422896,4.33027523 48.4590105,4.18348624 C47.249368,3.30275229 45.8197905,2.56880734 44.0969664,2.56880734 C42.1175515,2.56880734 40.7612857,3.59633028 40.7612857,5.21100917 C40.7612857,6.89908257 42.0808956,7.52293578 44.6834597,8.18348624 C48.4590105,9.13761468 50.2918021,10.4587156 50.2918021,13.2844037 C50.2918021,16.5504587 47.5426147,18.6055046 43.7304081,18.6055046 C41.3111231,18.6055046 39.2583965,17.6880734 37.6821957,16.4036697 C37.4622607,16.2201835 37.3889491,16.1100917 37.3889491,15.9633028 C37.3889491,15.853211 37.4256049,15.706422 37.5722282,15.5229358 L38.3420007,14.4587156 C38.4886241,14.3486239 38.6352474,14.2385321 38.7452149,14.2385321 Z" id="Shape" fill="#00C850"></path>
          <path d="M62.791441,16.8807339 C62.791441,17.0275229 62.7181293,17.1743119 62.5348501,17.3211009 C61.3985193,18.1284404 60.152221,18.6788991 58.1361502,18.6788991 C54.470567,18.6788991 51.6114121,16.0366972 51.6114121,12.2201835 C51.6114121,8.29357798 54.5072228,5.57798165 58.1361502,5.57798165 C60.1155652,5.57798165 61.3985193,6.12844037 62.5348501,6.89908257 C62.6814735,7.00917431 62.7547851,7.1559633 62.7547851,7.30275229 C62.7547851,7.41284404 62.7181293,7.52293578 62.6448176,7.66972477 L61.911701,8.80733945 C61.8017335,8.95412844 61.691766,9.02752294 61.5817985,9.02752294 C61.471831,9.02752294 61.3252077,8.95412844 61.2152402,8.88073394 C60.4088118,8.40366972 59.3457927,7.9266055 58.2094619,7.9266055 C55.8268328,7.9266055 54.1773203,9.72477064 54.1773203,12.1834862 C54.1773203,14.4954128 55.8268328,16.3302752 58.2094619,16.3302752 C59.3824485,16.3302752 60.4821235,15.9266055 61.2885518,15.3761468 C61.3985193,15.3027523 61.5451427,15.2293578 61.6551101,15.2293578 C61.7650776,15.2293578 61.8750451,15.3027523 62.0216685,15.4862385 L62.7547851,16.6605505 C62.7547851,16.6972477 62.791441,16.8073394 62.791441,16.8807339 Z" id="Shape" fill="#00C850"></path>
          <path d="M68.1431925,18.6055046 C65.3940051,18.6055046 63.3779343,17.1376147 63.3779343,14.4587156 C63.3779343,11.7798165 65.4306609,10.3119266 68.1431925,10.3119266 C69.3894908,10.3119266 70.6357891,10.6788991 71.4055616,11.412844 C71.3322499,9.02752294 70.1226074,7.81651376 67.9965692,7.81651376 C67.37342,7.81651376 66.6036475,7.9266055 66.3837125,7.9266055 C66.0904659,7.9266055 65.9804984,7.81651376 65.9071867,7.44954128 L65.7605634,6.31192661 L65.7605634,6.20183486 C65.7605634,5.90825688 65.8705309,5.79816514 66.2370892,5.72477064 C66.7869267,5.6146789 67.6300108,5.5412844 68.2165042,5.5412844 C72.1020224,5.5412844 73.8248465,7.85321101 73.8248465,11.706422 L73.8248465,17.9082569 C73.8248465,18.2385321 73.714879,18.3853211 73.3849765,18.3853211 L71.8087757,18.3853211 C71.5155291,18.3853211 71.3322499,18.2752294 71.3322499,17.9082569 L71.3322499,17.5045872 C70.6357891,18.2752294 69.4261466,18.6055046 68.1431925,18.6055046 Z M68.69303,16.8440367 C70.2325749,16.8440367 71.4422174,15.9633028 71.4422174,14.5321101 C71.4422174,13.0642202 70.2325749,12.146789 68.69303,12.146789 C67.153485,12.146789 65.9438425,13.0275229 65.9438425,14.4954128 C65.9071867,15.9266055 67.153485,16.8440367 68.69303,16.8440367 Z" id="Shape" fill="#00C850"></path>
          <path d="M74.9611773,8.14678899 C74.5213073,8.14678899 74.4113398,8 74.4113398,7.59633028 L74.4113398,6.4587156 C74.4113398,6.05504587 74.5213073,5.90825688 74.9611773,5.90825688 L77.1971831,5.90825688 L77.1971831,3.08256881 C77.1971831,2.64220183 77.3438064,2.53211009 77.7470206,2.53211009 L79.0666306,2.53211009 C79.4698447,2.53211009 79.616468,2.64220183 79.616468,3.08256881 L79.616468,5.90825688 L81.8891296,5.90825688 C82.3289996,5.90825688 82.4389671,6.05504587 82.4389671,6.4587156 L82.4389671,7.59633028 C82.4389671,8 82.3289996,8.14678899 81.8891296,8.14678899 L79.616468,8.14678899 L79.616468,17.8348624 C79.616468,18.2752294 79.4698447,18.3853211 79.0666306,18.3853211 L77.7470206,18.3853211 C77.3438064,18.3853211 77.1971831,18.2752294 77.1971831,17.8348624 L77.1971831,8.14678899 L74.9611773,8.14678899 Z" id="Shape" fill="#00C850"></path>
          <path d="M83.9785121,8.14678899 C83.5386421,8.14678899 83.4286746,8 83.4286746,7.59633028 L83.4286746,6.4587156 C83.4286746,6.05504587 83.5386421,5.90825688 83.9785121,5.90825688 L86.2145179,5.90825688 L86.2145179,3.08256881 C86.2145179,2.64220183 86.3611412,2.53211009 86.7643554,2.53211009 L88.0839653,2.53211009 C88.4871795,2.53211009 88.6338028,2.64220183 88.6338028,3.08256881 L88.6338028,5.90825688 L90.9064644,5.90825688 C91.3463344,5.90825688 91.4563019,6.05504587 91.4563019,6.4587156 L91.4563019,7.59633028 C91.4563019,8 91.3463344,8.14678899 90.9064644,8.14678899 L88.6338028,8.14678899 L88.6338028,17.8348624 C88.6338028,18.2752294 88.4871795,18.3853211 88.0839653,18.3853211 L86.7643554,18.3853211 C86.3611412,18.3853211 86.2145179,18.2752294 86.2145179,17.8348624 L86.2145179,8.14678899 L83.9785121,8.14678899 Z" id="Shape" fill="#00C850"></path>
          <path d="M103.222824,16.6972477 C103.222824,16.8440367 103.149512,16.9908257 102.929577,17.1376147 C101.756591,18.0183486 100.143734,18.6788991 98.0176959,18.6788991 C94.0955218,18.6788991 91.5662694,15.8165138 91.5662694,12.1834862 C91.5662694,8.33027523 94.2421452,5.5412844 97.8344168,5.5412844 C101.426688,5.5412844 103.955941,8.29357798 103.955941,11.853211 L103.955941,12.293578 C103.955941,12.6238532 103.845973,12.7706422 103.516071,12.7706422 L94.1321777,12.7706422 C94.3521127,14.9357798 95.8916576,16.4770642 98.2376309,16.4770642 C99.74052,16.4770642 100.986818,15.9266055 101.829902,15.3394495 C101.976526,15.2293578 102.123149,15.1926606 102.233117,15.1926606 C102.343084,15.1926606 102.453052,15.2293578 102.563019,15.412844 L103.112857,16.3669725 C103.186168,16.4770642 103.222824,16.587156 103.222824,16.6972477 Z M97.8344168,7.63302752 C96.038281,7.63302752 94.6820152,8.7706422 94.2054893,10.8256881 L101.316721,10.8256881 C101.023474,8.95412844 99.7038642,7.63302752 97.8344168,7.63302752 Z" id="Shape" fill="#00C850"></path>
          <path d="M105.8987,5.87155963 L107.291622,5.87155963 C107.768147,5.87155963 107.841459,6.05504587 107.841459,6.49541284 L107.841459,7.41284404 C108.501264,6.42201835 109.637595,5.6146789 111.507042,5.6146789 L111.726977,5.6146789 C112.203503,5.6146789 112.350126,5.76146789 112.350126,6.23853211 L112.350126,7.48623853 C112.350126,7.96330275 112.203503,8.11009174 111.726977,8.11009174 L111.140484,8.11009174 C108.97779,8.11009174 107.804803,9.13761468 107.804803,11.853211 L107.804803,17.9082569 C107.804803,18.2385321 107.694836,18.3853211 107.364933,18.3853211 L105.788732,18.3853211 C105.45883,18.3853211 105.312207,18.2752294 105.312207,17.9082569 L105.312207,6.4587156 C105.348862,6.05504587 105.45883,5.87155963 105.8987,5.87155963 Z" id="Shape" fill="#00C850"></path>
        </g>
      </g>
    </g>
  </g>
</svg>
