<?xml version="1.0" encoding="UTF-8"?>
<svg width="405px" height="48px" viewBox="0 0 405 48" version="1.1" xmlns="http://www.w3.org/2000/svg" xmlns:xlink="http://www.w3.org/1999/xlink">
    <!-- Generator: sketchtool 62 (101010) - https://sketch.com -->
    <title>5C38D88A-00C3-4044-8C7C-2903EA9E9CD6</title>
    <desc>Created with sketchtool.</desc>
    <defs>
        <polygon id="path-1" points="0.00662983425 0.0500869565 30.041989 0.0500869565 30.041989 32.1129886 0.00662983425 32.1129886"></polygon>
        <polygon id="path-3" points="0.00662983425 0.0499771167 59.9149171 0.0499771167 59.9149171 33.8501053 0.00662983425 33.8501053"></polygon>
    </defs>
    <g id="Desktop-V2" stroke="none" stroke-width="1" fill="none" fill-rule="evenodd">
        <g id="Holding-Page" transform="translate(-80.000000, -80.000000)">
            <g id="Logo" transform="translate(80.000000, 80.000000)">
                <g id="word" transform="translate(76.000000, 14.000000)" fill-rule="nonzero">
                    <path d="M109.91353,20 C110.314552,20 110.543708,19.8 110.543708,19.4 L110.543708,2.97142857 L117.848039,2.97142857 C118.249061,2.97142857 118.478217,2.74285714 118.478217,2.37142857 L118.478217,0.6 C118.478217,0.2 118.249061,0 117.848039,0 L99.6301776,0 C99.2291555,0 99,0.2 99,0.6 L99,2.37142857 C99,2.74285714 99.2291555,2.97142857 99.6301776,2.97142857 L106.934509,2.97142857 L106.934509,19.4 C106.934509,19.8 107.163664,20 107.564687,20 L109.91353,20 Z M139.560522,20 C139.9329,20 140.162055,19.8 140.162055,19.4 L140.162055,17.6285714 C140.162055,17.2571429 139.9329,17.0285714 139.560522,17.0285714 L124.865926,17.0285714 L124.865926,11.3714286 L137.297612,11.3714286 C137.669989,11.3714286 137.927789,11.1714286 137.927789,10.8 L137.927789,9 C137.927789,8.6 137.669989,8.4 137.297612,8.4 L124.865926,8.4 L124.865926,2.97142857 L139.560522,2.97142857 C139.9329,2.97142857 140.162055,2.74285714 140.162055,2.37142857 L140.162055,0.6 C140.162055,0.2 139.9329,0 139.560522,0 L121.886905,0 C121.485883,0 121.285372,0.2 121.285372,0.6 L121.285372,19.4 C121.285372,19.8 121.485883,20 121.886905,20 L139.560522,20 Z M158.46585,20 C161.845894,20 163.106249,18.8 163.106249,15.5428571 L163.106249,14.3142857 C163.106249,13.9428571 162.905738,13.7142857 162.504716,13.7142857 L160.241805,13.7142857 C159.840783,13.7142857 159.611628,13.9428571 159.611628,14.3142857 L159.611628,15.3428571 C159.611628,16.4857143 159.096028,17.0285714 157.835673,17.0285714 L150.130319,17.0285714 C147.752831,17.0285714 147.237231,16.6 147.237231,14.6285714 L147.237231,5.37142857 C147.237231,3.4 147.752831,2.97142857 150.130319,2.97142857 L157.835673,2.97142857 C159.096028,2.97142857 159.611628,3.51428571 159.611628,4.65714286 L159.611628,5.68571429 C159.611628,6.08571429 159.840783,6.28571429 160.241805,6.28571429 L162.504716,6.28571429 C162.905738,6.28571429 163.106249,6.08571429 163.106249,5.68571429 L163.106249,4.45714286 C163.106249,1.22857143 161.845894,0 158.46585,0 L148.468942,0 C145.232121,0 143.656677,1.48571429 143.656677,4.57142857 L143.656677,15.4285714 C143.656677,18.5428571 145.232121,20 148.468942,20 L158.46585,20 Z M169.89498,20 C170.296002,20 170.525158,19.8 170.525158,19.4 L170.525158,11.3714286 L183.329221,11.3714286 L183.329221,19.4 C183.329221,19.8 183.529732,20 183.959399,20 L186.308242,20 C186.709265,20 186.909776,19.8 186.909776,19.4 L186.909776,0.6 C186.909776,0.2 186.709265,0 186.308242,0 L183.959399,0 C183.529732,0 183.329221,0.2 183.329221,0.6 L183.329221,8.42857143 L170.525158,8.42857143 L170.525158,0.6 C170.525158,0.2 170.296002,0 169.89498,0 L167.546137,0 C167.145114,0 166.944603,0.2 166.944603,0.6 L166.944603,19.4 C166.944603,19.8 167.145114,20 167.546137,20 L169.89498,20 Z M194.242751,20 C194.643774,20 194.872929,19.8 194.872929,19.4 L194.872929,2.94285714 L206.359348,19.5428571 C206.588504,19.8857143 206.789015,20 207.247326,20 L211.458058,20 C211.85908,20 212.059591,19.8 212.059591,19.4 L212.059591,0.6 C212.059591,0.2 211.85908,0 211.458058,0 L209.309725,0 C208.908703,0 208.679547,0.2 208.679547,0.6 L208.679547,17.0857143 L197.164484,0.457142857 C196.935328,0.114285714 196.734817,0 196.305151,0 L192.094419,0 C191.693397,0 191.492886,0.2 191.492886,0.6 L191.492886,19.4 C191.492886,19.8 191.693397,20 192.094419,20 L194.242751,20 Z M231.996119,20 C235.261584,20 236.77974,18.5428571 236.77974,15.4285714 L236.77974,4.57142857 C236.77974,1.48571429 235.261584,0 231.996119,0 L221.139877,0 C217.903056,0 216.327612,1.48571429 216.327612,4.57142857 L216.327612,15.4285714 C216.327612,18.5428571 217.903056,20 221.139877,20 L231.996119,20 Z M230.306097,17.0285714 L222.801255,17.0285714 C220.423766,17.0285714 219.908167,16.6 219.908167,14.6285714 L219.908167,5.37142857 C219.908167,3.4 220.423766,2.97142857 222.801255,2.97142857 L230.306097,2.97142857 C232.683585,2.97142857 233.170541,3.4 233.170541,5.37142857 L233.170541,14.6285714 C233.170541,16.6 232.683585,17.0285714 230.306097,17.0285714 Z M258.263067,20 C258.635445,20 258.8646,19.8 258.8646,19.4 L258.8646,17.6285714 C258.8646,17.2571429 258.635445,17.0285714 258.263067,17.0285714 L244.685604,17.0285714 L244.685604,0.6 C244.685604,0.2 244.456449,0 244.055427,0 L241.706583,0 C241.305561,0 241.10505,0.2 241.10505,0.6 L241.10505,19.4 C241.10505,19.8 241.305561,20 241.706583,20 L258.263067,20 Z M277.025173,20 C280.290639,20 281.808794,18.5428571 281.808794,15.4285714 L281.808794,4.57142857 C281.808794,1.48571429 280.290639,0 277.025173,0 L266.168931,0 C262.93211,0 261.356666,1.48571429 261.356666,4.57142857 L261.356666,15.4285714 C261.356666,18.5428571 262.93211,20 266.168931,20 L277.025173,20 Z M275.335151,17.0285714 L267.830309,17.0285714 C265.452821,17.0285714 264.937221,16.6 264.937221,14.6285714 L264.937221,5.37142857 C264.937221,3.4 265.452821,2.97142857 267.830309,2.97142857 L275.335151,2.97142857 C277.712639,2.97142857 278.199595,3.4 278.199595,5.37142857 L278.199595,14.6285714 C278.199595,16.6 277.712639,17.0285714 275.335151,17.0285714 Z M301.172433,20 C304.552476,20 305.841476,18.8 305.841476,15.5428571 L305.841476,9.82857143 C305.841476,9.45714286 305.612321,9.22857143 305.211298,9.22857143 L296.675256,9.22857143 C296.274234,9.22857143 296.073723,9.45714286 296.073723,9.82857143 L296.073723,11.6 C296.073723,12 296.274234,12.2 296.675256,12.2 L302.346855,12.2 L302.346855,15.3428571 C302.346855,16.4857143 301.802611,17.0285714 300.5709,17.0285714 L292.292658,17.0285714 C289.915169,17.0285714 289.39957,16.6 289.39957,14.6285714 L289.39957,5.37142857 C289.39957,3.4 289.915169,2.97142857 292.292658,2.97142857 L300.5709,2.97142857 C301.802611,2.97142857 302.346855,3.51428571 302.346855,4.65714286 L302.346855,5.48571429 C302.346855,5.85714286 302.547366,6.05714286 302.977032,6.05714286 L305.211298,6.05714286 C305.612321,6.05714286 305.841476,5.85714286 305.841476,5.48571429 L305.841476,4.45714286 C305.841476,1.22857143 304.552476,0 301.172433,0 L290.63128,0 C287.394459,0 285.819015,1.48571429 285.819015,4.57142857 L285.819015,15.4285714 C285.819015,18.5428571 287.394459,20 290.63128,20 L301.172433,20 Z M319.36165,20 C319.762672,20 319.991828,19.8 319.991828,19.4 L319.991828,12.4285714 L328.900247,0.6 C329.100759,0.314285714 328.986181,0 328.671092,0 L325.863937,0 C325.376982,0 325.119182,0.0571428571 324.890026,0.4 L318.244517,9.62857143 L311.599008,0.4 C311.369852,0.0857142857 311.140697,0 310.653741,0 L307.703364,0 C307.359631,0 307.245053,0.314285714 307.474209,0.6 L316.382629,12.4571429 L316.382629,19.4 C316.382629,19.8 316.611784,20 316.984162,20 L319.36165,20 Z" id="TECHNOLOGY" fill="#4CB0D8"></path>
                    <path d="M15.3806836,20 C18.491063,20 19.9463782,18.6 19.9463782,15.6285714 L19.9463782,12.7714286 C19.9463782,9.8 18.491063,8.4 15.3806836,8.4 L6.30636563,8.4 C4.28033866,8.4 3.8523048,7.97142857 3.8523048,6.28571429 L3.8523048,5.05714286 C3.8523048,3.4 4.28033866,2.97142857 6.30636563,2.97142857 L14.2963311,2.97142857 C15.5518971,2.97142857 16.0655378,3.51428571 16.0655378,4.65714286 L16.0655378,5.05714286 C16.0655378,5.42857143 16.2938225,5.65714286 16.6933208,5.65714286 L18.9190969,5.65714286 C19.3471308,5.65714286 19.5468799,5.42857143 19.5468799,5.05714286 L19.5468799,4.45714286 C19.5468799,1.22857143 18.2913139,0 14.9241141,0 L4.82251489,0 C1.71213547,0 0.285355911,1.4 0.285355911,4.37142857 L0.285355911,7 C0.285355911,9.97142857 1.71213547,11.3714286 4.82251489,11.3714286 L13.8968329,11.3714286 C15.9513954,11.3714286 16.3508937,11.8 16.3508937,13.4857143 L16.3508937,14.9428571 C16.3508937,16.6285714 15.9513954,17.0285714 13.8968329,17.0285714 L5.25054876,17.0285714 C4.02351834,17.0285714 3.5098777,16.4857143 3.5098777,15.3428571 L3.5098777,14.9142857 C3.5098777,14.5428571 3.25305738,14.3142857 2.8820947,14.3142857 L0.627783004,14.3142857 C0.228284729,14.3142857 0,14.5428571 0,14.9142857 L0,15.5428571 C0,18.8 1.2841016,20 4.65130135,20 L15.3806836,20 Z M41.8331765,20 C42.2041392,20 42.432424,19.8 42.432424,19.4 L42.432424,17.6285714 C42.432424,17.2571429 42.2041392,17.0285714 41.8331765,17.0285714 L27.1944183,17.0285714 L27.1944183,11.3714286 L39.5788648,11.3714286 C39.9498275,11.3714286 40.2066479,11.1714286 40.2066479,10.8 L40.2066479,9 C40.2066479,8.6 39.9498275,8.4 39.5788648,8.4 L27.1944183,8.4 L27.1944183,2.97142857 L41.8331765,2.97142857 C42.2041392,2.97142857 42.432424,2.74285714 42.432424,2.37142857 L42.432424,0.6 C42.432424,0.2 42.2041392,0 41.8331765,0 L24.2267168,0 C23.8272186,0 23.6274694,0.2 23.6274694,0.6 L23.6274694,19.4 C23.6274694,19.8 23.8272186,20 24.2267168,20 L41.8331765,20 Z M48.9100031,20 C49.3095014,20 49.5377861,19.8 49.5377861,19.4 L49.5377861,2.94285714 L60.9805582,19.5428571 C61.2088429,19.8857143 61.408592,20 61.8651615,20 L66.0598934,20 C66.4593917,20 66.6591408,19.8 66.6591408,19.4 L66.6591408,0.6 C66.6591408,0.2 66.4593917,0 66.0598934,0 L63.9197241,0 C63.5202258,0 63.291941,0.2 63.291941,0.6 L63.291941,17.0857143 L51.8206334,0.457142857 C51.5923487,0.114285714 51.3925996,0 50.9645657,0 L46.7698338,0 C46.3703355,0 46.1705864,0.2 46.1705864,0.6 L46.1705864,19.4 C46.1705864,19.8 46.3703355,20 46.7698338,20 L48.9100031,20 Z M84.6936344,20 C88.5459392,20 91,17.7142857 91,13.9714286 L91,6.02857143 C91,2.31428571 88.5459392,0 84.6936344,0 L71.8240828,0 C71.4245845,0 71.2248354,0.2 71.2248354,0.6 L71.2248354,19.4 C71.2248354,19.8 71.4245845,20 71.8240828,20 L84.6936344,20 Z M83.0956413,17.0285714 L74.7917843,17.0285714 L74.7917843,2.97142857 L83.0956413,2.97142857 C86.2345563,2.97142857 87.4330511,4 87.4330511,6.62857143 L87.4330511,13.3714286 C87.4330511,16 86.2345563,17.0285714 83.0956413,17.0285714 Z" id="SEND" fill="#2E2F2C"></path>
                </g>
                <g id="icon">
                    <g id="Group-3" transform="translate(0.000000, 15.816934)">
                        <mask id="mask-2" fill="white">
                            <use xlink:href="#path-1"></use>
                        </mask>
                        <g id="Clip-2"></g>
                        <polyline id="Fill-1" fill="#4CB0D8" mask="url(#mask-2)" points="0 0.0500869565 0.624088398 13.7008696 30.041989 32.1129886 30.041989 18.0331716 0 0.0500869565"></polyline>
                    </g>
                    <polyline id="Fill-4" fill="#4CB0D8" points="9.23767956 10.9829931 9.42265193 16.1735835 29.9574586 28.1895103 34.4824309 25.5533547 9.23767956 10.9829931"></polyline>
                    <polyline id="Fill-5" fill="#4CB0D8" points="17.0541436 6.89596339 17.0541436 10.4516979 43.8361326 25.5533547 43.5893923 35.6484027 46.5908287 37.3852998 47.0225414 23.6323661 17.0541436 6.89596339"></polyline>
                    <polyline id="Fill-6" fill="#4CB0D8" points="30.2064088 4.77067277 30.2064088 9.38910755 51.421768 21.0167506 51.1340331 29.8856568 54.9987845 32.0721281 55.5950276 18.4214554 30.2064088 4.77067277"></polyline>
                    <polyline id="Fill-7" fill="#34687C" points="30.041989 33.8501053 30.041989 47.9299222 43.5688398 39.3675789 43.8361326 25.5533547 30.041989 33.8501053"></polyline>
                    <polyline id="Fill-8" fill="#34687C" points="47.0225414 23.6323661 51.421768 21.0167506 51.0723757 34.6062426 46.5908287 37.3852998 47.0225414 23.6323661"></polyline>
                    <polyline id="Fill-9" fill="#34687C" points="55.5950276 18.4214554 54.9987845 32.0721281 59.2542541 29.4359725 59.9149171 15.8465904 55.5950276 18.4214554"></polyline>
                    <polyline id="Fill-10" fill="#34687C" points="30.2064088 4.77067277 30.2064088 9.38910755 25.8961326 7.07983524 30.2064088 4.77067277"></polyline>
                    <g id="Group-14">
                        <mask id="mask-4" fill="white">
                            <use xlink:href="#path-3"></use>
                        </mask>
                        <g id="Clip-12"></g>
                        <polyline id="Fill-11" fill="#E7F5F8" mask="url(#mask-4)" points="29.8671823 0.0499771167 17.0541436 6.89596339 47.0225414 23.6323661 51.421768 21.0167506 25.8961326 7.06962014 30.2064088 4.77067277 55.5950276 18.4214554 59.9149171 15.8465904 29.8671823 0.0499771167"></polyline>
                        <polyline id="Fill-13" fill="#E7F5F8" mask="url(#mask-4)" points="13.7089503 8.57167963 9.23767956 10.9829931 34.4824309 25.5533547 29.9574586 28.1895103 4.61226519 13.3842014 0 15.8670206 30.041989 33.8501053 43.8361326 25.5533547 13.7089503 8.57167963"></polyline>
                    </g>
                    <polyline id="Fill-15" fill="#00B2DD" points="51.421768 21.0167506 30.2064088 9.42469565 30.2064088 9.38910755 51.421768 21.0167506"></polyline>
                    <polyline id="Fill-16" fill="#19697F" points="30.2064088 9.38910755 30.2064088 9.42469565 25.8961326 7.06962014 30.2064088 9.38910755"></polyline>
                </g>
            </g>
        </g>
    </g>
</svg>